<?xml version="1.0" encoding="utf-8"?>
<!-- Generator: Adobe Illustrator 26.3.1, SVG Export Plug-In . SVG Version: 6.00 Build 0)  -->
<svg version="1.1" id="Capa_1" xmlns="http://www.w3.org/2000/svg" xmlns:xlink="http://www.w3.org/1999/xlink" x="0px" y="0px"
	 viewBox="0 0 800 800" style="enable-background:new 0 0 800 800;" xml:space="preserve">
<style type="text/css">
	.st0{fill:#00FF00;}
	.st1{fill-rule:evenodd;clip-rule:evenodd;fill:#FF0000;}
</style>
<path class="st0" d="M723.7,315.3c-37.6-144-168.3-250.5-324.1-250.5c-162.9,0-298.6,116.3-328.9,270.4h75.6
	c28.9-113.1,131.2-196.9,253.3-196.9c114.9,0,212.2,74.1,247.4,177h-75.3l114.2,114.2L800,315.3L723.7,315.3L723.7,315.3z"/>
<path class="st0" d="M76.4,484.7c37.6,144.1,168.2,250.6,324,250.6c163,0,298.7-116.3,328.8-270.4h-75.6
	c-28.9,113.1-131.2,196.9-253.3,196.9c-114.9,0-212.1-74.1-247.4-177h75.3L114.2,370.5L0,484.6C0,484.6,76.4,484.6,76.4,484.7z"/>
<g id="Dribbble-Light-Preview" transform="translate(-180.000000, -1479.000000)">
	<g id="icons" transform="translate(56.000000, 160.000000)">
		<path id="file_x5F_image-_x5B__x23_1708_x5D_" class="st1" d="M558.2,1720.3c0-9.4,7.7-17.1,17.1-17.1c9.4,0,17.1,7.6,17.1,17.1
			s-7.7,17.1-17.1,17.1C565.9,1737.4,558.2,1729.8,558.2,1720.3L558.2,1720.3z M571,1770.6l55.6,67.3H421.4l77.3-101.4l48.5,69.1
			L571,1770.6z M421.4,1667.4v-34.1c0-9.4,7.7-17.1,17.1-17.1h68.4c9.4,0,17.1,7.6,17.1,17.1v34.1c0,9.4-7.7,17.1-17.1,17.1h-68.4
			C429.1,1684.4,421.4,1676.8,421.4,1667.4L421.4,1667.4z M660.8,1839.7c0,9.4-7.7,15.3-17.1,15.3H404.3c-9.4,0-17.1-5.9-17.1-15.3
			V1601c0-9.4,7.7-18.8,17.1-18.8h153.9v70c0,18.8,15.3,32.3,34.2,32.3h68.4V1839.7z M690,1646.7l-92.6-92.8
			c-3.2-3.2-7.6-5.9-12.1-5.9H387.2v0.9c-18.9,0-34.2,15.7-34.2,34.6v0.4v272.9c0,18.8,15.3,33.2,34.2,33.2v-0.9h273.6v0.9
			c18.9,0,34.2-14.8,34.2-33.7v-197.2C695,1654.7,693.2,1649.9,690,1646.7L690,1646.7z"/>
	</g>
</g>
</svg>
